<svg width="342" height="82" viewBox="0 0 342 82" fill="none" xmlns="http://www.w3.org/2000/svg">
<rect width="341.226" height="82" fill="#030303"/>
<path fill-rule="evenodd" clip-rule="evenodd" d="M55.5482 56.8709C64.3135 56.8709 71.4192 49.7652 71.4192 40.9999C71.4192 32.2347 64.3135 25.129 55.5482 25.129C46.7829 25.129 39.6772 32.2347 39.6772 40.9999C39.6772 49.7652 46.7829 56.8709 55.5482 56.8709ZM60.4994 32.5223C60.7404 31.6663 59.9097 31.16 59.151 31.7006L48.5595 39.2459C47.7367 39.8321 47.8661 40.9999 48.754 40.9999H51.543V40.9783H56.9786L52.5496 42.5411L50.5971 49.4776C50.356 50.3336 51.1867 50.8399 51.9455 50.2993L62.5369 42.7541C63.3598 42.1679 63.2303 40.9999 62.3425 40.9999H58.1131L60.4994 32.5223Z" fill="#A8FF35"/>
<path d="M91.9877 32.075V48.9999H89.7443V32.075H91.9877ZM99.0785 39.6889V41.5256H91.4995V39.6889H99.0785ZM100.229 32.075V33.9117H91.4995V32.075H100.229ZM104.914 36.4225V48.9999H102.752V36.4225H104.914ZM102.589 33.0864C102.589 32.7376 102.694 32.4431 102.903 32.2029C103.12 31.9627 103.438 31.8426 103.856 31.8426C104.267 31.8426 104.581 31.9627 104.798 32.2029C105.022 32.4431 105.135 32.7376 105.135 33.0864C105.135 33.4196 105.022 33.7063 104.798 33.9465C104.581 34.179 104.267 34.2953 103.856 34.2953C103.438 34.2953 103.12 34.179 102.903 33.9465C102.694 33.7063 102.589 33.4196 102.589 33.0864ZM110.517 39.1077V48.9999H108.366V36.4225H110.401L110.517 39.1077ZM110.005 42.2346L109.11 42.1998C109.118 41.3396 109.246 40.5452 109.494 39.8168C109.742 39.0806 110.091 38.4413 110.54 37.8988C110.99 37.3563 111.524 36.9378 112.144 36.6434C112.772 36.3411 113.465 36.19 114.225 36.19C114.845 36.19 115.403 36.2753 115.899 36.4458C116.395 36.6085 116.817 36.872 117.166 37.2362C117.522 37.6004 117.794 38.0732 117.98 38.6544C118.166 39.2278 118.259 39.9292 118.259 40.7584V48.9999H116.096V40.7351C116.096 40.0764 116 39.5494 115.806 39.1542C115.612 38.7512 115.329 38.4606 114.957 38.2824C114.585 38.0964 114.128 38.0034 113.586 38.0034C113.051 38.0034 112.563 38.1158 112.121 38.3405C111.687 38.5652 111.311 38.8752 110.993 39.2704C110.683 39.6657 110.439 40.119 110.261 40.6305C110.091 41.1342 110.005 41.6689 110.005 42.2346ZM129.453 46.5588V31.1451H131.615V48.9999H129.639L129.453 46.5588ZM120.99 42.8507V42.6066C120.99 41.6457 121.106 40.7738 121.339 39.9912C121.579 39.2007 121.916 38.5226 122.35 37.9569C122.792 37.3912 123.315 36.9572 123.92 36.655C124.532 36.345 125.214 36.19 125.965 36.19C126.756 36.19 127.446 36.3295 128.035 36.6085C128.631 36.8797 129.135 37.2788 129.546 37.8058C129.964 38.325 130.294 38.9527 130.534 39.6889C130.774 40.4251 130.941 41.2582 131.034 42.1881V43.2576C130.948 44.1798 130.782 45.0089 130.534 45.7452C130.294 46.4814 129.964 47.1091 129.546 47.6283C129.135 48.1475 128.631 48.5466 128.035 48.8256C127.438 49.0968 126.74 49.2324 125.942 49.2324C125.206 49.2324 124.532 49.0736 123.92 48.7558C123.315 48.4381 122.792 47.9925 122.35 47.419C121.916 46.8456 121.579 46.1714 121.339 45.3964C121.106 44.6137 120.99 43.7652 120.99 42.8507ZM123.152 42.6066V42.8507C123.152 43.4784 123.214 44.0674 123.338 44.6176C123.47 45.1678 123.672 45.6522 123.943 46.0706C124.214 46.4891 124.559 46.8185 124.977 47.0587C125.396 47.2912 125.896 47.4074 126.477 47.4074C127.19 47.4074 127.775 47.2563 128.232 46.9541C128.697 46.6518 129.069 46.2527 129.348 45.7568C129.627 45.2608 129.844 44.7222 129.999 44.141V41.3396C129.906 40.9133 129.77 40.5026 129.592 40.1074C129.422 39.7044 129.197 39.3479 128.918 39.038C128.647 38.7202 128.31 38.4684 127.907 38.2824C127.511 38.0964 127.043 38.0034 126.5 38.0034C125.911 38.0034 125.404 38.1274 124.977 38.3754C124.559 38.6156 124.214 38.9488 123.943 39.3751C123.672 39.7935 123.47 40.2818 123.338 40.8397C123.214 41.3899 123.152 41.9789 123.152 42.6066ZM140.228 36.4225V38.0732H133.428V36.4225H140.228ZM135.73 33.3653H137.88V45.8846C137.88 46.3109 137.946 46.6325 138.078 46.8495C138.21 47.0664 138.38 47.2098 138.589 47.2796C138.799 47.3493 139.023 47.3842 139.264 47.3842C139.442 47.3842 139.628 47.3687 139.822 47.3377C140.023 47.2989 140.174 47.2679 140.275 47.2447L140.286 48.9999C140.116 49.0542 139.891 49.1046 139.612 49.1511C139.341 49.2053 139.012 49.2324 138.624 49.2324C138.097 49.2324 137.613 49.1278 137.171 48.9186C136.729 48.7093 136.377 48.3606 136.113 47.8724C135.858 47.3764 135.73 46.71 135.73 45.873V33.3653ZM144.901 38.3986V48.9999H142.751V36.4225H144.843L144.901 38.3986ZM148.83 36.3528L148.819 38.3521C148.64 38.3134 148.47 38.2901 148.307 38.2824C148.152 38.2669 147.974 38.2591 147.772 38.2591C147.277 38.2591 146.839 38.3366 146.459 38.4916C146.079 38.6466 145.758 38.8636 145.494 39.1426C145.231 39.4216 145.021 39.7548 144.866 40.1423C144.719 40.522 144.622 40.9405 144.576 41.3977L143.971 41.7464C143.971 40.987 144.045 40.274 144.192 39.6076C144.347 38.9411 144.584 38.3521 144.901 37.8407C145.219 37.3214 145.622 36.9185 146.11 36.6317C146.606 36.3373 147.195 36.19 147.877 36.19C148.032 36.19 148.21 36.2094 148.412 36.2481C148.613 36.2791 148.753 36.314 148.83 36.3528ZM155.805 49.2324C154.929 49.2324 154.135 49.0852 153.422 48.7907C152.717 48.4885 152.108 48.0661 151.597 47.5237C151.093 46.9812 150.706 46.338 150.434 45.594C150.163 44.8501 150.028 44.0364 150.028 43.1529V42.6647C150.028 41.6418 150.179 40.7312 150.481 39.933C150.783 39.1271 151.194 38.4451 151.713 37.8872C152.232 37.3292 152.821 36.9069 153.48 36.6201C154.139 36.3334 154.821 36.19 155.526 36.19C156.425 36.19 157.2 36.345 157.851 36.655C158.509 36.965 159.048 37.3989 159.466 37.9569C159.885 38.5071 160.195 39.1581 160.396 39.9098C160.598 40.6537 160.699 41.4674 160.699 42.3509V43.3157H151.306V41.5604H158.548V41.3977C158.517 40.8397 158.401 40.2973 158.199 39.7703C158.006 39.2433 157.696 38.8094 157.269 38.4684C156.843 38.1274 156.262 37.9569 155.526 37.9569C155.038 37.9569 154.588 38.0615 154.177 38.2708C153.767 38.4722 153.414 38.7745 153.12 39.1775C152.825 39.5804 152.597 40.0725 152.434 40.6537C152.271 41.2349 152.19 41.9053 152.19 42.6647V43.1529C152.19 43.7497 152.271 44.3115 152.434 44.8385C152.604 45.3577 152.848 45.8149 153.166 46.2101C153.492 46.6053 153.883 46.9153 154.34 47.1401C154.805 47.3648 155.332 47.4772 155.921 47.4772C156.681 47.4772 157.324 47.3222 157.851 47.0122C158.378 46.7022 158.839 46.2876 159.234 45.7684L160.536 46.803C160.265 47.2137 159.92 47.605 159.501 47.977C159.083 48.349 158.568 48.6512 157.955 48.8837C157.351 49.1162 156.634 49.2324 155.805 49.2324ZM165.36 39.1077V48.9999H163.209V36.4225H165.244L165.36 39.1077ZM164.849 42.2346L163.953 42.1998C163.961 41.3396 164.089 40.5452 164.337 39.8168C164.585 39.0806 164.934 38.4413 165.383 37.8988C165.833 37.3563 166.367 36.9378 166.987 36.6434C167.615 36.3411 168.309 36.19 169.068 36.19C169.688 36.19 170.246 36.2753 170.742 36.4458C171.238 36.6085 171.66 36.872 172.009 37.2362C172.366 37.6004 172.637 38.0732 172.823 38.6544C173.009 39.2278 173.102 39.9292 173.102 40.7584V48.9999H170.94V40.7351C170.94 40.0764 170.843 39.5494 170.649 39.1542C170.455 38.7512 170.172 38.4606 169.8 38.2824C169.428 38.0964 168.971 38.0034 168.429 38.0034C167.894 38.0034 167.406 38.1158 166.964 38.3405C166.53 38.5652 166.154 38.8752 165.837 39.2704C165.527 39.6657 165.282 40.119 165.104 40.6305C164.934 41.1342 164.849 41.6689 164.849 42.2346ZM184.296 46.5588V31.1451H186.458V48.9999H184.482L184.296 46.5588ZM175.833 42.8507V42.6066C175.833 41.6457 175.95 40.7738 176.182 39.9912C176.422 39.2007 176.759 38.5226 177.193 37.9569C177.635 37.3912 178.158 36.9572 178.763 36.655C179.375 36.345 180.057 36.19 180.809 36.19C181.599 36.19 182.289 36.3295 182.878 36.6085C183.474 36.8797 183.978 37.2788 184.389 37.8058C184.807 38.325 185.137 38.9527 185.377 39.6889C185.617 40.4251 185.784 41.2582 185.877 42.1881V43.2576C185.792 44.1798 185.625 45.0089 185.377 45.7452C185.137 46.4814 184.807 47.1091 184.389 47.6283C183.978 48.1475 183.474 48.5466 182.878 48.8256C182.281 49.0968 181.584 49.2324 180.785 49.2324C180.049 49.2324 179.375 49.0736 178.763 48.7558C178.158 48.4381 177.635 47.9925 177.193 47.419C176.759 46.8456 176.422 46.1714 176.182 45.3964C175.95 44.6137 175.833 43.7652 175.833 42.8507ZM177.996 42.6066V42.8507C177.996 43.4784 178.058 44.0674 178.182 44.6176C178.313 45.1678 178.515 45.6522 178.786 46.0706C179.057 46.4891 179.402 46.8185 179.821 47.0587C180.239 47.2912 180.739 47.4074 181.32 47.4074C182.033 47.4074 182.618 47.2563 183.075 46.9541C183.54 46.6518 183.912 46.2527 184.191 45.7568C184.47 45.2608 184.687 44.7222 184.842 44.141V41.3396C184.749 40.9133 184.614 40.5026 184.435 40.1074C184.265 39.7044 184.04 39.3479 183.761 39.038C183.49 38.7202 183.153 38.4684 182.75 38.2824C182.355 38.0964 181.886 38.0034 181.343 38.0034C180.754 38.0034 180.247 38.1274 179.821 38.3754C179.402 38.6156 179.057 38.9488 178.786 39.3751C178.515 39.7935 178.313 40.2818 178.182 40.8397C178.058 41.3899 177.996 41.9789 177.996 42.6066ZM200.186 40.9211V42.688H194.514V40.9211H200.186ZM219.273 47.1749V48.9999H210.311V47.1749H219.273ZM210.764 32.075V48.9999H208.521V32.075H210.764ZM218.088 39.3518V41.1768H210.311V39.3518H218.088ZM219.157 32.075V33.9117H210.311V32.075H219.157ZM224.062 31.1451V48.9999H221.9V31.1451H224.062ZM226.945 42.8507V42.5834C226.945 41.6767 227.077 40.8358 227.34 40.0609C227.604 39.2782 227.984 38.6001 228.48 38.0267C228.976 37.4454 229.576 36.996 230.281 36.6782C230.987 36.3528 231.777 36.19 232.653 36.19C233.536 36.19 234.33 36.3528 235.036 36.6782C235.749 36.996 236.353 37.4454 236.849 38.0267C237.353 38.6001 237.736 39.2782 238 40.0609C238.263 40.8358 238.395 41.6767 238.395 42.5834V42.8507C238.395 43.7574 238.263 44.5982 238 45.3732C237.736 46.1481 237.353 46.8262 236.849 47.4074C236.353 47.9809 235.753 48.4304 235.047 48.7558C234.35 49.0736 233.559 49.2324 232.676 49.2324C231.793 49.2324 230.998 49.0736 230.293 48.7558C229.588 48.4304 228.983 47.9809 228.48 47.4074C227.984 46.8262 227.604 46.1481 227.34 45.3732C227.077 44.5982 226.945 43.7574 226.945 42.8507ZM229.096 42.5834V42.8507C229.096 43.4784 229.169 44.0713 229.317 44.6292C229.464 45.1794 229.685 45.6677 229.979 46.0939C230.281 46.5201 230.657 46.8572 231.107 47.1052C231.556 47.3454 232.079 47.4655 232.676 47.4655C233.265 47.4655 233.78 47.3454 234.222 47.1052C234.671 46.8572 235.043 46.5201 235.338 46.0939C235.632 45.6677 235.853 45.1794 236 44.6292C236.155 44.0713 236.233 43.4784 236.233 42.8507V42.5834C236.233 41.9634 236.155 41.3783 236 40.8281C235.853 40.2701 235.629 39.778 235.326 39.3518C235.032 38.9178 234.66 38.5769 234.21 38.3289C233.769 38.0809 233.249 37.9569 232.653 37.9569C232.064 37.9569 231.545 38.0809 231.095 38.3289C230.653 38.5769 230.281 38.9178 229.979 39.3518C229.685 39.778 229.464 40.2701 229.317 40.8281C229.169 41.3783 229.096 41.9634 229.096 42.5834ZM243.242 39.1077V48.9999H241.092V36.4225H243.126L243.242 39.1077ZM242.731 42.2346L241.836 42.1998C241.844 41.3396 241.971 40.5452 242.219 39.8168C242.467 39.0806 242.816 38.4413 243.266 37.8988C243.715 37.3563 244.25 36.9378 244.87 36.6434C245.498 36.3411 246.191 36.19 246.951 36.19C247.57 36.19 248.128 36.2753 248.624 36.4458C249.12 36.6085 249.543 36.872 249.891 37.2362C250.248 37.6004 250.519 38.0732 250.705 38.6544C250.891 39.2278 250.984 39.9292 250.984 40.7584V48.9999H248.822V40.7351C248.822 40.0764 248.725 39.5494 248.531 39.1542C248.338 38.7512 248.055 38.4606 247.683 38.2824C247.311 38.0964 246.854 38.0034 246.311 38.0034C245.776 38.0034 245.288 38.1158 244.847 38.3405C244.413 38.5652 244.037 38.8752 243.719 39.2704C243.409 39.6657 243.165 40.119 242.987 40.6305C242.816 41.1342 242.731 41.6689 242.731 42.2346ZM261.19 32.075H263.364L268.909 45.873L274.442 32.075H276.627L269.746 48.9999H268.049L261.19 32.075ZM260.481 32.075H262.399L262.713 42.3974V48.9999H260.481V32.075ZM275.407 32.075H277.325V48.9999H275.093V42.3974L275.407 32.075ZM288.635 46.0939V36.4225H290.797V48.9999H288.74L288.635 46.0939ZM289.042 43.4436L289.937 43.4203C289.937 44.2572 289.848 45.0322 289.67 45.7452C289.499 46.4504 289.22 47.0626 288.833 47.5818C288.445 48.101 287.938 48.5078 287.31 48.8023C286.682 49.0891 285.919 49.2324 285.02 49.2324C284.408 49.2324 283.846 49.1433 283.334 48.9651C282.831 48.7868 282.397 48.5117 282.032 48.1397C281.668 47.7678 281.385 47.2834 281.184 46.6867C280.99 46.09 280.893 45.3732 280.893 44.5362V36.4225H283.044V44.5595C283.044 45.1252 283.106 45.594 283.23 45.966C283.362 46.3302 283.536 46.6208 283.753 46.8378C283.978 47.0471 284.226 47.1943 284.497 47.2796C284.776 47.3648 285.063 47.4074 285.357 47.4074C286.271 47.4074 286.996 47.2331 287.531 46.8843C288.065 46.5278 288.449 46.0513 288.682 45.4545C288.922 44.8501 289.042 44.1798 289.042 43.4436ZM301.398 45.6638C301.398 45.3538 301.329 45.0671 301.189 44.8036C301.058 44.5324 300.782 44.2882 300.364 44.0713C299.953 43.8465 299.333 43.6528 298.504 43.49C297.807 43.3428 297.175 43.1684 296.609 42.967C296.051 42.7655 295.575 42.5214 295.18 42.2346C294.792 41.9479 294.494 41.6108 294.284 41.2233C294.075 40.8358 293.971 40.3825 293.971 39.8633C293.971 39.3673 294.079 38.8985 294.296 38.4568C294.521 38.015 294.835 37.6237 295.238 37.2827C295.648 36.9417 296.14 36.6744 296.714 36.4806C297.287 36.2869 297.927 36.19 298.632 36.19C299.639 36.19 300.5 36.3683 301.212 36.7247C301.925 37.0812 302.472 37.5578 302.852 38.1545C303.231 38.7435 303.421 39.3983 303.421 40.119H301.271C301.271 39.7703 301.166 39.4332 300.957 39.1077C300.755 38.7745 300.457 38.4994 300.062 38.2824C299.674 38.0654 299.198 37.9569 298.632 37.9569C298.035 37.9569 297.551 38.0499 297.179 38.2359C296.815 38.4141 296.547 38.6427 296.377 38.9217C296.214 39.2007 296.133 39.4952 296.133 39.8052C296.133 40.0376 296.171 40.2469 296.249 40.4329C296.334 40.6111 296.481 40.7777 296.691 40.9327C296.9 41.08 297.194 41.2194 297.574 41.3512C297.954 41.4829 298.438 41.6147 299.027 41.7464C300.058 41.9789 300.906 42.2579 301.573 42.5834C302.239 42.9088 302.735 43.3079 303.061 43.7807C303.386 44.2534 303.549 44.8268 303.549 45.501C303.549 46.0513 303.433 46.555 303.2 47.0122C302.976 47.4694 302.646 47.8646 302.212 48.1979C301.786 48.5233 301.274 48.7791 300.678 48.9651C300.089 49.1433 299.426 49.2324 298.69 49.2324C297.582 49.2324 296.644 49.0348 295.877 48.6396C295.11 48.2444 294.529 47.7329 294.133 47.1052C293.738 46.4775 293.54 45.8149 293.54 45.1174H295.703C295.734 45.7064 295.904 46.1752 296.214 46.524C296.524 46.865 296.904 47.1091 297.353 47.2563C297.803 47.3958 298.248 47.4655 298.69 47.4655C299.279 47.4655 299.771 47.388 300.166 47.2331C300.569 47.0781 300.875 46.865 301.085 46.5937C301.294 46.3225 301.398 46.0125 301.398 45.6638ZM308.536 31.1451V48.9999H306.374V31.1451H308.536ZM316.219 36.4225L310.733 42.2928L307.664 45.4778L307.49 43.1878L309.687 40.5607L313.592 36.4225H316.219ZM314.255 48.9999L309.768 43.0018L310.884 41.0838L316.789 48.9999H314.255Z" fill="white"/>
<rect x="256.581" width="84.6452" height="82" fill="url(#paint0_linear_2_22)"/>
<rect width="2.64056" height="19.8042" rx="0.66129" transform="matrix(0.707101 -0.707112 0.707101 0.707112 304.193 34.9316)" fill="white"/>
<rect width="2.64056" height="19.8042" rx="0.66129" transform="matrix(-0.707101 -0.707112 -0.707101 0.707112 320.064 34.9316)" fill="white"/>
<defs>
<linearGradient id="paint0_linear_2_22" x1="341.226" y1="41" x2="256.581" y2="41" gradientUnits="userSpaceOnUse">
<stop offset="0.536458" stop-color="#030303"/>
<stop offset="1" stop-color="#030303" stop-opacity="0.6"/>
</linearGradient>
</defs>
</svg>
